<svg xmlns="http://www.w3.org/2000/svg" version="1.1" xmlns:xlink="http://www.w3.org/1999/xlink" viewBox="0 0 200 200"><rect width="200" height="200" fill="url('#gradient')"></rect><defs><linearGradient id="gradient" gradientTransform="rotate(58 0.5 0.5)"><stop offset="0%" stop-color="#27354b"></stop><stop offset="100%" stop-color="#b0bea6"></stop></linearGradient></defs><g><g fill="#2c3448" transform="matrix(4.184542493337282,0,0,4.184542493337282,26.515957816345363,129.73554795739352)" stroke="#27354b" stroke-width="0.75"><path d="M10.03-8.30L10.03-5.66L4.50-5.66L4.50 0L1.07 0L1.07-14.22L10.59-14.22L10.59-11.57L4.50-11.57L4.50-8.30L10.03-8.30ZM11.80-10.57L14.88-10.57L14.99-9.33Q16.08-10.76 18.01-10.76L18.01-10.76Q19.66-10.76 20.47-9.78Q21.29-8.79 21.32-6.81L21.32-6.81L21.32 0L18.02 0L18.02-6.67Q18.02-7.47 17.70-7.85Q17.37-8.22 16.52-8.22L16.52-8.22Q15.56-8.22 15.09-7.46L15.09-7.46L15.09 0L11.80 0L11.80-10.57ZM30.63-3.78L30.63-3.78Q30.63-4.53 30.09-4.95Q29.56-5.37 28.22-5.82Q26.88-6.27 26.04-6.69L26.04-6.69Q23.27-8.05 23.27-10.42L23.27-10.42Q23.27-11.60 23.96-12.50Q24.65-13.41 25.91-13.91Q27.17-14.41 28.74-14.41L28.74-14.41Q30.27-14.41 31.49-13.87Q32.71-13.32 33.38-12.31Q34.05-11.30 34.05-10L34.05-10L30.63-10Q30.63-10.87 30.10-11.35Q29.57-11.83 28.66-11.83L28.66-11.83Q27.74-11.83 27.21-11.42Q26.68-11.02 26.68-10.39L26.68-10.39Q26.68-9.84 27.27-9.40Q27.85-8.96 29.33-8.48Q30.80-8.01 31.75-7.46L31.75-7.46Q34.05-6.13 34.05-3.80L34.05-3.80Q34.05-1.93 32.65-0.87Q31.24 0.20 28.79 0.20L28.79 0.20Q27.06 0.20 25.66-0.42Q24.26-1.04 23.55-2.12Q22.84-3.20 22.84-4.61L22.84-4.61L26.28-4.61Q26.28-3.47 26.87-2.92Q27.46-2.38 28.79-2.38L28.79-2.38Q29.64-2.38 30.13-2.75Q30.63-3.12 30.63-3.78Z"></path></g></g></svg>